<svg width="460" height="220" viewBox="0 0 460 220" fill="none" xmlns="http://www.w3.org/2000/svg">
<path d="M431.93 5.89472C435.432 17.1288 438.142 34.4001 439.06 41.6315L455.503 57.595C455.856 58.9492 456.289 61.728 455.206 62.0099C426.617 67.7135 393.542 78.7772 380.578 83.596L379.846 78.0032L384.569 57.2556L377.874 31.5264C375.936 24.0784 372.644 16.9829 374.175 17.3076C375.705 17.6324 390.425 13.0795 401.61 11.615C412.796 10.1504 431.578 4.54055 431.93 5.89472Z" stroke="white" stroke-width="1.5"/>
<path d="M439.06 41.6317C425.058 44.3111 394.556 51.187 384.569 57.2557" stroke="white" stroke-width="1.5"/>
<path d="M454.826 57.7714C440.823 60.4508 390.009 72.6115 380.022 78.6803" stroke="white" stroke-width="1.5"/>
<path d="M432.345 49.162C426.134 50.2962 409.99 53.8218 395.106 58.8514" stroke="white" stroke-width="1.5"/>
<path d="M433.38 53.1459C427.169 54.28 411.025 57.8057 396.141 62.8353" stroke="white" stroke-width="1.5"/>
<path d="M433.941 38.6262L429.427 10.1612C424.811 10.2053 394.769 17.733 380.324 21.4913C382.194 27.752 386.463 42.3047 388.577 50.4297C403.58 43.6342 425.071 39.7293 433.941 38.6262Z" stroke="white" stroke-width="1.5"/>
<path d="M135.427 120.996L132.76 78.4346L168.322 107.993L151.4 112.17L135.427 120.996Z" stroke="white" stroke-width="1.5" stroke-linecap="round" stroke-linejoin="round"/>
<path d="M155.842 129.599C166.725 141.247 162.477 161.282 146.106 165.601C142.823 166.467 132.24 167.152 132.873 161.633C133.4 157.041 139.187 156.408 142.492 158.688C152.36 165.496 144.429 179.157 136.636 184.175C127.273 190.203 114.629 194.046 103.705 190.898C94.1929 188.157 88.7991 181.901 91.5826 171.988" stroke="white" stroke-width="1.5" stroke-linecap="round" stroke-linejoin="round" stroke-dasharray="3 2"/>
<path d="M153.268 105.757C150.118 101.585 138.236 85.558 132.688 78.066C137.441 93.0354 147.124 123.298 147.839 124.592C148.554 125.886 157.899 121.144 162.482 118.612C160.723 116.065 156.417 109.928 153.268 105.757Z" stroke="white" stroke-width="1.5"/>
<path d="M346.992 92.024C346.992 92.648 347.504 93.16 348.128 93.16C348.752 93.16 349.264 92.648 349.264 92.024V90.184H351.152C351.76 90.184 352.256 89.688 352.256 89.08C352.256 88.472 351.76 87.976 351.152 87.976H349.264V86.136C349.264 85.512 348.752 85 348.128 85C347.504 85 346.992 85.512 346.992 86.136V87.976H345.104C344.496 87.976 344 88.472 344 89.08C344 89.688 344.496 90.184 345.104 90.184H346.992V92.024Z" fill="white"/>
<path d="M453.992 206.024C453.992 206.648 454.504 207.16 455.128 207.16C455.752 207.16 456.264 206.648 456.264 206.024V204.184H458.152C458.76 204.184 459.256 203.688 459.256 203.08C459.256 202.472 458.76 201.976 458.152 201.976H456.264V200.136C456.264 199.512 455.752 199 455.128 199C454.504 199 453.992 199.512 453.992 200.136V201.976H452.104C451.496 201.976 451 202.472 451 203.08C451 203.688 451.496 204.184 452.104 204.184H453.992V206.024Z" fill="white"/>
<path d="M187.992 138.024C187.992 138.648 188.504 139.16 189.128 139.16C189.752 139.16 190.264 138.648 190.264 138.024V136.184H192.152C192.76 136.184 193.256 135.688 193.256 135.08C193.256 134.472 192.76 133.976 192.152 133.976H190.264V132.136C190.264 131.512 189.752 131 189.128 131C188.504 131 187.992 131.512 187.992 132.136V133.976H186.104C185.496 133.976 185 134.472 185 135.08C185 135.688 185.496 136.184 186.104 136.184H187.992V138.024Z" fill="white"/>
<path d="M50.992 28.024C50.992 28.648 51.504 29.16 52.128 29.16C52.752 29.16 53.264 28.648 53.264 28.024V26.184H55.152C55.76 26.184 56.256 25.688 56.256 25.08C56.256 24.472 55.76 23.976 55.152 23.976H53.264V22.136C53.264 21.512 52.752 21 52.128 21C51.504 21 50.992 21.512 50.992 22.136V23.976H49.104C48.496 23.976 48 24.472 48 25.08C48 25.688 48.496 26.184 49.104 26.184H50.992V28.024Z" fill="white"/>
<path d="M293.525 135.664C293.801 135.196 294.102 134.754 294.403 134.312C295.87 132.181 297.337 130.049 298.692 127.84C300.021 125.656 301.225 123.382 302.354 121.082C303.47 118.807 304.536 116.481 305.276 114.037C306.016 111.607 306.63 109.163 307.119 106.681C307.358 105.459 307.634 104.225 307.809 102.99C307.985 101.781 308.01 100.547 307.997 99.3248C307.972 96.8555 307.583 94.347 307.044 91.9556C306.981 91.6957 306.944 91.4358 306.881 91.1758C306.831 90.9289 306.643 90.6949 306.706 90.448C306.831 89.8501 306.956 89.2393 307.044 88.6284C307.232 87.4197 307.308 86.211 307.32 85.0023C307.358 82.7019 307.358 80.2195 306.655 78.036C306.48 77.4902 306.279 76.8793 305.928 76.4245C305.74 76.1905 305.514 76.0085 305.288 75.8396C305.188 75.7616 305.088 75.7096 304.975 75.6576C304.9 75.6186 304.875 75.6316 304.824 75.5796C304.787 75.5406 304.762 75.4107 304.737 75.3717C304.473 74.9818 303.696 75.0598 303.282 75.0338C302.743 74.9948 302.203 74.9948 301.677 75.0078C300.611 75.0468 299.532 75.1898 298.504 75.4887C297.413 75.8006 296.359 76.3075 295.343 76.8533C294.265 77.4252 293.211 78.049 292.183 78.7249C291.682 79.0628 291.18 79.4137 290.678 79.7646C290.616 79.8036 290.352 80.0505 290.277 80.0505C290.227 80.0505 290.101 79.9206 290.051 79.8946C289.8 79.7906 289.562 79.8946 289.311 79.9726C286.991 80.7394 284.583 81.4152 282.389 82.559C280.219 83.6767 278.15 85.1063 276.181 86.5879C274.137 88.1346 272.256 89.9021 270.475 91.7607C268.656 93.6452 266.8 95.4908 264.982 97.3623C263.151 99.2339 261.42 101.196 259.74 103.211C258.084 105.186 256.379 107.149 254.886 109.267C254.585 109.683 254.272 110.19 254.447 110.723C254.611 111.217 255.075 111.594 255.426 111.919C256.354 112.738 257.432 113.335 258.498 113.933C259.012 114.219 259.539 114.505 260.028 114.843C260.266 114.999 260.492 115.168 260.705 115.337C260.906 115.506 261.107 115.714 261.358 115.805C261.031 116.39 260.63 116.988 260.404 117.624C260.154 118.339 260.43 118.846 260.944 119.327C260.367 119.808 259.94 120.536 259.514 121.159C259.075 121.822 258.661 122.485 258.247 123.174C257.834 123.863 257.382 124.539 256.968 125.228C256.88 125.37 256.805 125.513 256.717 125.656C256.667 125.76 256.617 125.851 256.579 125.968C256.567 125.994 256.542 126.15 256.529 126.15C256.454 126.202 256.09 126.124 256.003 126.111C255.789 126.098 255.576 126.085 255.363 126.072C253.908 125.994 252.479 126.085 251.024 126.267C250.309 126.358 249.582 126.449 248.879 126.631C248.265 126.787 247.563 127.034 247.136 127.541C246.609 128.165 246.986 128.932 247.475 129.399C248.077 129.984 248.904 130.231 249.682 130.439C248.478 130.803 247.274 131.154 246.095 131.583C245.042 131.96 243.913 132.402 243.085 133.221C242.22 134.078 242.697 135.118 243.612 135.625C244.553 136.158 245.694 136.145 246.747 136.21C244.791 137.107 242.672 137.717 240.928 139.082C240.565 139.368 240.101 139.68 240.013 140.187C239.938 140.642 240.201 141.058 240.565 141.292C241.342 141.785 242.371 141.642 243.248 141.538C244.54 141.396 245.844 141.279 247.149 141.24C246.17 142.084 245.042 142.734 244.076 143.605C243.223 144.372 242.458 145.269 241.731 146.165C241.342 146.646 240.79 147.374 241.254 147.972C241.831 148.726 242.96 148.466 243.738 148.219C245.017 147.816 246.17 147.101 247.374 146.503C246.986 147.556 246.534 148.596 246.359 149.714C246.233 150.441 246.083 152.027 246.961 152.326C247.6 152.547 248.24 151.91 248.654 151.468C249.394 150.675 250.058 149.817 250.735 148.986C250.848 149.506 251.011 150.025 251.212 150.519C251.312 150.766 251.425 151.013 251.551 151.247C251.601 151.338 251.688 151.442 251.714 151.546C251.751 151.689 251.789 151.572 251.688 151.715C251.651 151.78 251.588 151.832 251.538 151.884C250.798 152.781 250.083 153.691 249.343 154.587C248.967 155.042 248.591 155.484 248.24 155.952C247.976 156.29 247.613 156.667 247.462 157.096C247.349 157.434 247.412 157.863 247.738 158.031C248.039 158.187 248.428 158.135 248.741 158.07C249.782 157.876 250.823 157.577 251.864 157.356C251.199 158.174 250.422 158.954 249.92 159.89C249.607 160.475 249.469 161.45 250.334 161.502C250.723 161.528 251.061 161.281 251.388 161.086C251.839 160.826 252.29 160.553 252.729 160.267C253.657 159.669 254.636 159.149 255.576 158.577C255.325 159.63 255.037 160.67 254.736 161.71C254.573 162.281 254.36 162.866 254.335 163.477C254.31 164.062 254.623 164.647 255.288 164.426C255.651 164.309 255.89 163.932 256.128 163.633C256.467 163.204 256.818 162.788 257.194 162.385C258.047 161.476 258.912 160.592 259.677 159.617C259.74 160.709 259.915 161.801 260.292 162.827C260.455 163.256 260.593 163.802 260.969 164.088C261.282 164.322 261.696 164.283 261.985 164.01C262.361 163.659 262.574 163.1 262.825 162.658C263.101 162.151 263.377 161.658 263.64 161.151C264.179 160.085 264.719 158.993 265.12 157.863C265.371 158.694 265.546 159.604 266.023 160.332C266.223 160.644 266.524 160.904 266.913 160.865C267.289 160.839 267.528 160.527 267.703 160.215C268.619 158.577 269.108 156.706 269.559 154.899C269.873 155.692 270.374 156.719 271.24 156.94C271.955 157.122 272.331 156.355 272.532 155.77C273.196 153.847 273.196 151.78 273.472 149.778C273.773 150.402 274.137 151.013 274.651 151.481C275.027 151.832 275.717 152.261 276.231 151.91C276.632 151.637 276.72 151.039 276.783 150.597C276.858 149.96 276.871 149.298 276.871 148.648C276.883 146.971 276.921 145.295 276.821 143.618C276.783 142.851 276.708 142.071 276.532 141.318C276.507 141.201 276.369 140.941 276.382 140.824C276.407 140.681 276.632 140.447 276.708 140.33C276.933 139.992 277.172 139.654 277.397 139.303C278.463 137.704 279.58 136.158 280.595 134.52C280.796 134.182 280.997 133.792 281.26 133.519C281.348 133.429 281.285 133.442 281.373 133.442C281.423 133.442 281.511 133.506 281.574 133.519C281.711 133.558 281.849 133.584 281.987 133.571C282.677 133.506 283.078 132.701 283.43 132.181C283.568 132.363 283.793 132.415 283.981 132.519C285.047 133.117 285.975 133.922 286.979 134.611C287.957 135.287 288.973 135.911 290.051 136.431C290.816 136.795 291.983 137.393 292.748 136.704C293.086 136.444 293.299 136.041 293.525 135.664ZM255.727 110.398C255.739 110.45 255.727 110.411 255.727 110.398V110.398ZM261.508 114.193C261.495 114.193 261.495 114.193 261.508 114.193C261.495 114.193 261.495 114.193 261.508 114.193C260.517 113.413 259.389 112.868 258.31 112.244C257.783 111.932 257.269 111.607 256.768 111.23C256.567 111.074 256.354 110.931 256.166 110.762C256.065 110.671 255.902 110.359 255.789 110.32C255.814 110.32 256.078 109.904 256.115 109.852C256.341 109.553 256.579 109.241 256.818 108.942C257.282 108.358 257.746 107.773 258.21 107.188C259.113 106.07 260.028 104.965 260.944 103.861C261.897 102.717 262.862 101.586 263.841 100.482C264.806 99.4028 265.86 98.415 266.876 97.3883C268.932 95.3218 270.901 93.1644 272.996 91.1239C275.04 89.1483 277.234 87.3938 279.592 85.8471C280.871 85.0154 282.15 84.1836 283.53 83.5337C284.934 82.8709 286.414 82.416 287.869 81.9221C285.825 83.6637 284.094 85.7172 282.364 87.7837C280.608 89.8891 278.877 92.0076 277.134 94.1261C273.685 98.3241 270.099 102.444 267.064 106.98C266.211 108.267 265.295 109.501 264.43 110.775C263.577 112.023 262.787 113.309 262.035 114.635C261.872 114.453 261.684 114.323 261.508 114.193ZM262.323 118.664C262.336 118.677 262.361 118.69 262.373 118.703C262.348 118.69 262.336 118.677 262.323 118.664ZM262.223 118.586C262.035 118.43 261.659 118.248 261.709 117.975C261.746 117.78 261.922 117.559 262.01 117.39C262.148 117.13 262.298 116.871 262.436 116.611C262.988 115.636 263.54 114.648 264.117 113.686C265.283 111.737 266.65 109.93 267.916 108.046C269.183 106.174 270.5 104.355 271.904 102.587C273.309 100.832 274.739 99.1039 276.168 97.3753C279.053 93.8662 281.9 90.331 284.847 86.8869C286.276 85.2233 287.781 83.6507 289.487 82.299C291.155 80.9863 292.923 79.7516 294.754 78.6989C296.46 77.7111 298.178 76.8663 300.109 76.5414C301.087 76.3725 302.09 76.3075 303.069 76.3984C303.282 76.4244 303.483 76.4634 303.696 76.4894C303.784 76.5024 303.909 76.4894 303.984 76.5154C304.059 76.5414 304.034 76.5154 304.097 76.5544C304.135 76.5934 304.172 76.6974 304.21 76.7494C304.486 77.1003 304.849 77.2692 305.063 77.6851C305.502 78.5689 305.677 79.6217 305.778 80.5964C305.878 81.6102 305.941 82.6239 305.978 83.6377C306.028 85.6912 305.89 87.7447 305.464 89.7592C305.025 91.8387 304.373 93.8662 303.671 95.8677C303.307 96.8814 302.956 97.9082 302.567 98.9219C302.153 99.9617 301.677 100.962 301.175 101.963C300.172 103.991 299.081 105.953 297.939 107.903C297.375 108.865 296.861 109.839 296.297 110.801C295.782 111.685 295.206 112.543 294.666 113.426C293.475 115.324 292.359 117.247 291.054 119.067C289.763 120.874 288.484 122.667 287.267 124.526C286.051 126.397 284.671 128.152 283.367 129.958C283.041 130.413 282.702 130.881 282.389 131.349C282.251 131.557 282.1 131.765 281.962 131.973C281.875 132.103 281.875 132.181 281.737 132.116C281.611 132.051 281.561 131.895 281.461 131.791C281.298 131.622 281.11 131.492 280.909 131.375C280.52 131.128 280.119 130.881 279.717 130.634C278.84 130.114 277.987 129.555 277.121 128.997C277.172 129.036 277.222 129.062 277.272 129.101C275.303 127.788 273.297 126.54 271.353 125.189C269.371 123.824 267.44 122.407 265.521 120.965C264.443 120.133 263.289 119.431 262.223 118.586ZM268.882 146.412C268.895 146.334 268.907 146.295 268.882 146.412C268.681 147.296 268.456 148.167 268.255 149.038C268.105 148.648 267.854 148.206 267.39 148.258C266.926 148.31 266.625 148.778 266.361 149.116C265.609 150.064 264.693 150.909 263.828 151.741C264.229 151.13 264.631 150.506 265.007 149.869C265.195 149.545 265.371 149.22 265.559 148.908C265.709 148.648 265.897 148.388 265.948 148.089C266.035 147.543 265.672 147.114 265.145 147.192C264.543 147.283 263.941 147.621 263.377 147.842C264.029 147.101 264.693 146.386 265.458 145.775C266.161 145.217 266.901 144.71 267.628 144.203C268.13 143.852 268.982 143.228 268.782 142.474C268.619 141.889 267.841 141.811 267.377 141.616C268.105 141.201 268.857 140.837 269.597 140.46C270.299 140.109 271.052 139.862 271.754 139.537C271.729 139.745 271.741 139.953 271.691 140.148C271.641 140.369 271.566 140.59 271.503 140.798C271.365 141.279 271.252 141.759 271.114 142.24C270.851 143.215 270.588 144.19 270.262 145.139C269.973 144.957 269.597 144.957 269.334 145.204C269.02 145.503 268.97 145.996 268.882 146.412ZM268.819 146.724C268.807 146.724 268.807 146.724 268.819 146.724V146.724ZM268.832 146.633C268.844 146.568 268.857 146.49 268.882 146.425C268.857 146.516 268.844 146.594 268.832 146.633ZM270.174 135.3C270.951 134.26 271.629 133.143 272.343 132.051C272.695 131.518 273.033 130.972 273.397 130.452C273.585 130.179 273.798 129.932 273.999 129.672C274.187 129.438 274.438 129.192 274.551 128.906C275.591 129.594 276.62 130.283 277.673 130.959C278.2 131.297 278.714 131.622 279.253 131.947C279.504 132.103 279.755 132.259 280.006 132.428C280.069 132.467 280.119 132.519 280.181 132.558C280.294 132.597 280.294 132.649 280.207 132.727C280.181 132.831 280.081 132.961 280.018 133.052C278.639 135.339 277.021 137.471 275.566 139.693C273.698 138.315 272.055 136.652 270.174 135.3ZM264.204 130.361C264.154 130.439 264.104 130.504 264.204 130.361C264.229 130.335 264.242 130.309 264.254 130.296C264.242 130.322 264.229 130.348 264.204 130.361C264.919 129.412 265.659 128.464 266.361 127.489C267.014 126.579 267.741 125.669 268.305 124.695C270.011 125.89 271.741 127.034 273.472 128.178C273.033 128.594 272.657 129.14 272.318 129.646C271.955 130.166 271.616 130.712 271.277 131.258C270.638 132.272 270.023 133.286 269.296 134.234C269.133 134.455 268.945 134.663 268.819 134.91C268.757 135.027 268.744 135.183 268.681 135.287C268.694 135.391 268.656 135.417 268.556 135.378C268.481 135.378 268.406 135.378 268.343 135.391C267.829 135.417 267.327 135.521 266.825 135.638C265.759 135.898 264.719 136.236 263.64 136.483C263.452 135.352 263.339 134.195 263.264 133.052C263.251 132.779 263.239 132.506 263.226 132.233C263.214 132.038 263.126 131.583 263.226 131.453C263.264 131.401 263.427 131.349 263.49 131.31C263.59 131.232 263.665 131.128 263.753 131.037C263.903 130.842 264.041 130.595 264.204 130.361ZM257.62 134.312C257.37 135.105 257.269 135.937 257.094 136.743C256.855 136.197 256.253 136.093 255.852 136.535C255.564 136.847 255.25 137.38 255.037 137.626C254.611 138.133 254.222 138.679 253.758 139.147C253.306 139.615 252.817 140.018 252.341 140.447C253.269 139.082 254.322 137.821 255.175 136.405C255.438 135.976 255.727 135.365 255.376 134.91C254.999 134.429 254.297 134.702 253.795 134.767C254.372 134.273 254.987 133.831 255.651 133.467C256.316 133.091 257.031 132.779 257.658 132.324C258.135 131.973 258.423 131.206 257.783 130.855C257.495 130.699 257.144 130.751 256.83 130.751C256.429 130.764 256.028 130.764 255.626 130.764C256.304 130.374 257.043 130.166 257.771 129.919C258.135 129.802 258.486 129.672 258.849 129.529C259.012 129.464 259.163 129.399 259.313 129.321C259.351 129.308 259.527 129.153 259.564 129.153C259.614 129.153 259.74 129.283 259.79 129.321C259.903 129.412 259.903 129.373 259.903 129.516C259.903 129.607 259.865 129.698 259.853 129.776C259.815 129.971 259.802 130.166 259.777 130.361C259.74 130.712 259.702 131.063 259.627 131.414C259.464 132.272 259.213 133.117 259.025 133.961C258.573 133.467 257.846 133.623 257.62 134.312ZM261.307 128.711C261.32 128.711 261.32 128.724 261.332 128.724C261.32 128.724 261.32 128.724 261.307 128.711ZM261.182 128.62C261.157 128.607 261.132 128.594 261.119 128.568C261.144 128.594 261.157 128.607 261.182 128.62C260.216 127.918 259.226 127.255 258.272 126.54C258.172 126.462 257.946 126.345 257.946 126.202C257.946 126.046 258.197 125.773 258.272 125.656C258.586 125.137 258.912 124.63 259.226 124.123C259.853 123.096 260.505 122.043 261.207 121.069C261.37 120.848 261.533 120.64 261.734 120.471C261.796 120.406 261.909 120.289 261.985 120.25C262.11 120.185 261.997 120.198 262.135 120.25C262.198 120.276 262.26 120.328 262.311 120.367C262.825 120.705 263.326 121.056 263.816 121.419C264.944 122.251 266.048 123.122 267.177 123.941C266.813 124.344 266.6 124.877 266.286 125.318C265.91 125.838 265.534 126.358 265.157 126.878C264.418 127.905 263.577 128.854 262.875 129.919C262.361 129.425 261.759 129.036 261.182 128.62ZM251.977 148.427C251.977 148.44 251.977 148.453 251.989 148.466C251.977 148.453 251.977 148.44 251.977 148.427ZM252.015 148.609C252.015 148.622 252.015 148.635 252.027 148.648C252.027 148.648 252.015 148.622 252.015 148.609ZM251.989 148.492C251.877 147.998 252.002 147.296 251.626 146.906C251.187 146.464 250.698 146.841 250.372 147.244C249.494 148.375 248.603 149.545 247.6 150.558C247.563 149.506 248.027 148.492 248.39 147.53C248.654 146.841 249.644 145.061 248.553 144.671C248.139 144.528 247.713 144.788 247.337 144.97C246.798 145.243 246.271 145.529 245.744 145.814C244.804 146.334 243.813 146.854 242.759 147.023C243.549 146.061 244.34 145.1 245.305 144.32C246.246 143.566 247.262 142.942 248.164 142.123C248.553 141.772 249.017 141.318 249.08 140.759C249.143 140.239 248.804 139.914 248.34 139.836C247.876 139.758 247.362 139.836 246.898 139.849C246.334 139.862 245.769 139.901 245.217 139.94C244.051 140.044 242.885 140.304 241.706 140.174C242.559 139.511 243.537 139.056 244.528 138.653C245.543 138.224 246.559 137.795 247.55 137.328C248.177 137.029 249.657 136.483 249.444 135.521C249.343 135.04 248.854 134.923 248.453 134.897C247.939 134.858 247.425 134.845 246.91 134.819C246.371 134.78 245.832 134.728 245.293 134.663C244.879 134.611 244.289 134.572 244.013 134.195C244.741 133.571 245.631 133.195 246.509 132.896C247.462 132.558 248.428 132.285 249.393 131.999C249.883 131.856 250.372 131.7 250.848 131.518C251.262 131.362 251.714 131.193 251.989 130.816C252.203 130.517 252.228 130.127 252.002 129.841C251.776 129.542 251.388 129.451 251.036 129.36C250.108 129.127 249.042 129.036 248.34 128.321C249.017 127.879 249.858 127.827 250.635 127.736C251.563 127.606 252.504 127.502 253.432 127.45C254.335 127.411 255.25 127.437 256.141 127.528C256.316 127.541 256.492 127.567 256.68 127.554C256.818 127.541 257.056 127.385 257.156 127.411C257.319 127.463 257.558 127.736 257.708 127.853C257.909 128.009 258.122 128.139 258.335 128.282C257.069 128.815 255.601 129.036 254.498 129.932C254.134 130.231 253.632 130.725 253.708 131.258C253.808 131.986 254.636 132.129 255.212 132.155C254.535 132.519 253.883 132.948 253.281 133.442C252.742 133.883 252.09 134.416 251.739 135.04C251.463 135.534 251.551 136.067 252.09 136.288C252.617 136.496 253.206 136.249 253.745 136.184C253.444 136.665 253.143 137.146 252.805 137.6C252.453 138.068 252.077 138.523 251.726 139.004C251.087 139.888 250.434 140.824 250.071 141.863C249.945 142.24 249.87 142.669 250.171 142.981C250.472 143.293 250.911 143.215 251.275 143.033C252.203 142.578 252.93 141.772 253.682 141.084C254.535 140.304 255.263 139.485 255.99 138.575C255.977 138.588 255.965 138.601 255.952 138.614C255.99 138.575 256.015 138.536 256.053 138.497C256.178 138.939 256.416 139.459 256.918 139.498C257.307 139.524 257.633 139.238 257.846 138.913C258.122 138.497 258.197 137.99 258.285 137.51C258.398 136.951 258.523 136.392 258.624 135.846C258.925 136.171 259.364 136.197 259.69 135.898C260.103 135.534 260.204 134.845 260.317 134.338C260.618 133 260.931 131.687 261.132 130.335C261.295 130.452 261.458 130.582 261.621 130.712C261.721 130.79 261.721 130.803 261.746 130.894C261.759 130.985 261.746 131.115 261.759 131.219C261.784 131.609 261.834 131.999 261.847 132.389C261.897 133.273 261.96 134.156 262.06 135.027C262.248 136.73 262.587 138.406 262.737 140.109C262.311 139.537 261.934 138.926 261.445 138.406C261.132 138.081 260.693 137.704 260.216 137.795C259.589 137.912 259.539 138.627 259.552 139.16C259.577 139.901 259.702 140.616 259.84 141.344C260.041 142.396 260.279 143.436 260.329 144.515C259.966 144.164 259.614 143.8 259.276 143.423C258.95 143.059 258.649 142.656 258.247 142.383C257.971 142.188 257.62 142.006 257.282 142.097C256.793 142.227 256.63 142.786 256.592 143.241C256.416 145.204 257.332 147.062 257.307 149.025C256.655 148.388 256.053 147.725 255.363 147.127C254.974 146.789 254.473 146.295 253.908 146.373C253.018 146.49 253.156 147.881 253.131 148.544C253.093 149.441 253.181 150.35 253.081 151.247C252.591 150.376 252.203 149.467 251.989 148.492ZM275.328 142.136C275.328 142.123 275.328 142.11 275.328 142.11C275.328 142.11 275.328 142.123 275.328 142.136ZM275.366 142.383C275.366 142.396 275.366 142.396 275.366 142.383V142.383ZM275.353 142.253C275.554 143.579 275.554 144.957 275.554 146.308C275.554 147.634 275.617 148.986 275.479 150.311C274.689 149.545 274.425 148.44 274.074 147.413C273.936 146.997 273.597 146.62 273.133 146.815C272.644 147.01 272.532 147.608 272.431 148.076C272.18 149.298 272.067 150.532 271.917 151.754C271.767 152.924 271.716 154.132 271.328 155.25C270.801 154.496 270.663 153.587 270.262 152.768C270.111 152.456 269.835 152.222 269.472 152.287C269.045 152.365 268.819 152.781 268.681 153.171C268.343 154.106 268.167 155.094 267.904 156.056C267.641 157.031 267.264 157.966 266.876 158.889C266.499 157.85 266.274 156.758 265.96 155.692C265.847 155.276 265.596 154.847 265.107 154.938C264.618 155.029 264.468 155.588 264.342 156.004C263.665 158.187 262.662 160.254 261.533 162.229C261.207 161.307 261.082 160.332 261.019 159.344C260.981 158.694 261.182 157.096 260.229 157.083C259.802 157.083 259.552 157.473 259.338 157.798C259.063 158.213 258.762 158.603 258.448 158.993C257.758 159.877 256.968 160.657 256.203 161.463C256.517 160.423 256.73 159.37 257.018 158.33C257.156 157.798 257.47 156.992 257.144 156.485C256.605 155.627 255.689 156.862 255.225 157.187C254.297 157.824 253.269 158.278 252.328 158.889C252.867 158.239 253.407 157.577 253.946 156.927C254.31 156.485 254.824 155.627 254.059 155.302C253.72 155.159 253.482 155.38 253.181 155.51C252.817 155.679 252.416 155.77 252.04 155.874C251.212 156.082 250.372 156.212 249.557 156.433C250.535 155.211 251.525 153.989 252.529 152.794C252.805 153.197 253.206 153.6 253.72 153.327C254.172 153.08 254.31 152.469 254.385 152.001C254.585 150.714 254.447 149.428 254.523 148.141C255.376 148.856 256.128 149.701 256.931 150.467C257.194 150.714 257.495 150.974 257.871 150.896C258.348 150.805 258.536 150.285 258.624 149.843C259.025 147.803 258.084 145.892 257.959 143.904C258.636 144.645 259.313 145.373 260.053 146.048C260.354 146.321 260.693 146.607 261.119 146.412C261.483 146.243 261.608 145.814 261.671 145.438C261.809 144.593 261.659 143.722 261.521 142.903C261.358 141.902 261.119 140.915 260.981 139.914C261.358 140.408 261.709 140.928 262.085 141.409C262.386 141.785 262.725 142.279 263.239 142.305C264.091 142.357 264.142 141.162 264.129 140.538C264.117 140.057 264.079 139.576 264.016 139.095C263.979 138.77 263.941 138.445 263.891 138.12C263.866 137.938 263.816 137.886 264.004 137.847C264.179 137.808 264.355 137.769 264.53 137.717C265.722 137.418 266.913 136.899 268.142 136.769C268.431 136.743 268.732 136.795 269.008 136.73C269.158 136.691 269.221 136.613 269.346 136.548C269.446 136.496 269.346 136.483 269.459 136.509C269.534 136.522 269.635 136.639 269.697 136.678C270.312 137.133 270.889 137.626 271.478 138.12C269.873 138.744 268.343 139.524 266.813 140.343C266.249 140.642 265.358 141.123 265.659 141.928C265.86 142.487 266.512 142.76 267.014 142.942C266.01 143.722 264.932 144.385 263.991 145.243C263.214 145.957 262.424 146.75 261.809 147.621C261.42 148.167 261.094 149.168 261.897 149.506C262.549 149.778 263.326 149.285 263.928 149.064C263.339 150.103 262.499 151.039 262.01 152.144C261.759 152.703 261.495 153.743 262.123 154.119C262.524 154.353 262.95 154.184 263.301 153.924C263.74 153.6 264.154 153.236 264.555 152.859C265.496 151.988 266.386 151.065 267.252 150.116C267.452 150.532 267.691 151.091 268.142 151.26C268.619 151.429 268.982 151.065 269.171 150.636C269.421 150.064 269.547 149.428 269.697 148.83C269.873 148.154 270.023 147.465 270.149 146.776C270.65 147.036 271.027 146.646 271.24 146.191C271.541 145.594 271.704 144.905 271.892 144.268C272.143 143.41 272.368 142.539 272.594 141.668C272.707 141.24 272.82 140.824 272.958 140.408C273.008 140.239 273.083 140.083 273.096 139.901C273.108 139.758 273.071 139.615 273.083 139.472C273.334 139.667 273.585 139.875 273.836 140.083C274.087 140.291 274.4 140.473 274.638 140.707C275.09 141.175 275.253 141.617 275.353 142.253ZM291.581 135.586C290.728 135.274 289.913 134.858 289.123 134.377C288.27 133.87 287.468 133.299 286.665 132.688C286.276 132.389 285.875 132.103 285.461 131.83C285.06 131.57 284.646 131.232 284.182 131.115C285.022 129.945 285.863 128.776 286.715 127.606C287.543 126.462 288.321 125.306 289.111 124.149C290.728 121.783 292.459 119.509 293.989 117.091C297.036 112.257 299.984 107.344 302.542 102.223C303.959 99.3768 305.013 96.3356 305.941 93.2943C306.63 96.7515 306.881 100.365 306.304 103.887C306.016 105.641 305.614 107.396 305.226 109.137C304.812 110.97 304.323 112.816 303.696 114.583C302.454 118.079 300.811 121.445 299.005 124.669C298.065 126.332 297.049 127.957 296.021 129.555C295.005 131.154 293.876 132.675 292.835 134.26C292.61 134.598 292.396 134.936 292.196 135.287C292.008 135.612 291.92 135.716 291.581 135.586Z" fill="white"/>
<path d="M285.098 93.9966C285.199 94.4125 285.336 94.8284 285.5 95.2183C285.437 95.0623 285.374 94.9193 285.349 94.8414C285.374 94.9063 285.424 95.0233 285.5 95.2183C285.6 95.4652 285.663 95.6212 285.7 95.6992C285.663 95.6082 285.575 95.4132 285.5 95.2183C286.239 96.9988 287.669 98.3765 289.099 99.5722C289.826 100.17 290.691 100.573 291.557 100.911C292.372 101.236 293.237 101.47 294.128 101.418C295.733 101.327 297.263 100.495 298.592 99.5722C300.197 98.4675 301.627 96.9469 302.329 95.0493C302.869 93.5807 302.906 91.9561 302.38 90.5004C302.066 89.6296 301.552 88.8628 300.988 88.161C300.373 87.3812 299.733 86.6144 299.019 85.9385C298.279 85.2497 297.451 84.8208 296.523 84.4309C296.197 84.2879 295.846 84.106 295.482 84.093C295.319 84.093 295.181 84.171 295.031 84.171C294.843 84.171 294.642 84.054 294.466 84.002C293.651 83.7811 292.698 83.8591 291.858 83.976C291.043 84.093 290.24 84.3269 289.5 84.6908C288.697 85.0937 287.983 85.6396 287.343 86.2895C286.666 86.9783 285.964 87.7451 285.5 88.6159C284.634 90.2275 284.672 92.294 285.098 93.9966ZM287.418 88.213C287.431 88.2 287.443 88.187 287.456 88.161C287.544 88.057 287.581 88.018 287.594 88.005C287.569 88.031 287.519 88.096 287.456 88.161C288.484 86.9393 289.638 85.9385 291.168 85.5097C291.82 85.3277 292.497 85.2497 293.162 85.2627C293.501 85.2757 293.852 85.2887 294.178 85.4057C294.516 85.5226 294.805 85.6786 295.169 85.5617C295.444 85.4707 295.608 85.5746 295.858 85.6786C296.26 85.8476 296.661 85.9905 297.037 86.1985C297.752 86.5884 298.367 87.2382 298.918 87.8491C299.947 88.9928 301.05 90.2535 301.326 91.8521C301.903 95.1273 299.232 97.6877 296.686 99.1173C295.495 99.7802 294.203 100.222 292.861 99.8711C292.121 99.6762 291.356 99.3643 290.679 99.0004C289.977 98.6365 289.412 97.9996 288.823 97.4797C287.481 96.284 286.54 94.8024 286.239 92.9568C286.101 92.138 286.089 91.2932 286.239 90.4614C286.402 89.5387 286.866 88.8628 287.443 88.161C287.456 88.187 287.443 88.2 287.418 88.213ZM287.343 88.317C287.318 88.343 287.305 88.356 287.343 88.317V88.317ZM287.343 88.304C287.356 88.291 287.381 88.252 287.418 88.226C287.393 88.265 287.368 88.291 287.343 88.304Z" fill="white"/>
<path d="M288.282 94.1915C288.244 94.1005 288.207 94.0226 288.194 93.9706C288.207 94.0226 288.232 94.0875 288.282 94.1915C288.533 94.8023 288.395 94.4774 288.282 94.1915C288.771 95.3612 289.711 96.258 290.652 97.0248C291.567 97.7786 292.721 98.1685 293.9 98.1556C295.994 98.1166 298.352 96.6349 299.042 94.4774C299.757 92.242 298.816 89.6296 297.361 88.005C296.922 87.5111 296.433 87.0302 295.869 86.6793C295.33 86.3414 294.728 86.2374 294.101 86.1854C293.862 86.1725 293.612 86.1205 293.373 86.1465C293.097 86.1855 292.847 86.3154 292.571 86.3674C291.981 86.4844 291.404 86.7313 290.878 87.0173C290.238 87.3552 289.699 87.875 289.21 88.4209C288.721 88.9668 288.37 89.5516 288.169 90.2665C287.818 91.5662 287.768 92.9828 288.282 94.1915ZM291.028 88.5379C291.028 88.5379 291.016 88.5509 291.003 88.5639C291.003 88.5509 291.016 88.5509 291.028 88.5379ZM290.928 88.6289C290.903 88.6419 290.89 88.6679 290.865 88.6809C290.89 88.6549 290.915 88.6419 290.928 88.6289ZM290.802 88.7458C291.48 88.122 292.395 87.7711 293.286 87.6541C293.737 87.5891 294.201 87.5631 294.64 87.6671C295.104 87.7841 295.468 88.096 295.819 88.4209C297.035 89.5126 297.901 91.0852 297.926 92.8008C297.938 93.2297 297.888 93.6846 297.763 94.1005C297.625 94.5424 297.324 94.9193 297.023 95.2703C296.433 95.9461 295.631 96.4399 294.778 96.6609C292.859 97.1418 291.204 95.9981 290.05 94.5294C289.41 93.7106 289.172 92.7229 289.272 91.6701C289.323 91.1372 289.423 90.5524 289.674 90.0715C289.937 89.5517 290.389 89.1227 290.802 88.7458Z" fill="white"/>
<path d="M279.754 113.634C280.732 114.492 282.037 114.985 283.316 115.115C284.52 115.232 285.761 114.816 286.79 114.18C287.392 113.803 287.893 113.309 288.382 112.789C288.871 112.256 289.273 111.671 289.511 110.982C290.376 108.461 289.323 105.563 287.555 103.834C287.04 103.327 286.501 102.924 285.799 102.729C285.172 102.547 284.507 102.418 283.855 102.379C282.651 102.288 281.297 102.366 280.143 102.82C278.713 103.379 277.56 104.601 277.146 106.135C276.757 107.564 276.807 109.098 277.334 110.463C277.823 111.697 278.763 112.763 279.754 113.634ZM280.331 104.185C280.306 104.198 280.268 104.224 280.206 104.263C280.281 104.224 280.319 104.198 280.331 104.185ZM280.118 104.328C280.093 104.341 280.08 104.354 280.055 104.367C280.08 104.354 280.105 104.328 280.118 104.328ZM278.237 107.577C278.274 106.953 278.425 106.317 278.688 105.758C278.964 105.186 279.453 104.757 279.967 104.419C280.82 103.86 281.836 103.743 282.814 103.73C283.278 103.717 283.742 103.691 284.181 103.86C284.382 103.938 284.532 104.016 284.758 104.003C285.009 103.99 285.197 104.003 285.448 104.068C286.012 104.237 286.363 104.588 286.777 105.004C287.128 105.368 287.442 105.758 287.705 106.213C288.194 107.07 288.47 108.071 288.495 109.085C288.508 109.605 288.445 110.138 288.27 110.631C288.094 111.138 287.768 111.515 287.417 111.892C286.627 112.75 285.661 113.387 284.545 113.634C282.35 114.141 280.256 112.555 279.09 110.787C278.45 109.865 278.174 108.721 278.237 107.577Z" fill="white"/>
<path d="M274.024 111.749C274.062 111.827 274.112 111.944 274.187 112.1C274.639 113.062 274.4 112.568 274.187 112.1C275.052 113.946 276.357 115.57 277.862 116.883C279.316 118.157 281.172 118.781 283.066 118.911C284.019 118.976 284.96 118.833 285.888 118.573C286.352 118.443 286.828 118.3 287.267 118.079C287.731 117.858 288.145 117.533 288.559 117.221C290.252 115.96 291.782 114.297 292.56 112.269C292.948 111.268 293.187 110.346 293.187 109.267C293.199 108.279 293.074 107.291 292.773 106.369C292.121 104.328 290.779 102.834 289.274 101.43C287.869 100.117 285.787 99.0644 283.844 99.0904C282.916 99.1034 281.988 99.0775 281.085 99.3504C280.131 99.6233 279.241 100.117 278.401 100.663C276.595 101.846 275.052 103.418 274.187 105.459C273.811 106.343 273.522 107.226 273.46 108.188C273.397 109.098 273.497 110.008 273.736 110.866C273.848 111.281 273.999 111.697 274.187 112.087C274.124 111.97 274.062 111.84 274.024 111.749ZM279.103 101.859C279.166 101.82 279.166 101.82 279.103 101.859V101.859ZM278.464 102.262C278.451 102.275 278.451 102.275 278.464 102.262V102.262ZM278.79 102.054C278.777 102.067 278.764 102.067 278.752 102.08C278.764 102.08 278.777 102.067 278.79 102.054ZM278.677 102.132C278.627 102.158 278.589 102.184 278.551 102.21C278.589 102.184 278.627 102.158 278.677 102.132ZM278.501 102.236C278.501 102.236 278.489 102.236 278.489 102.249C278.501 102.236 278.501 102.236 278.501 102.236ZM275.165 106.577C275.817 104.627 277.272 103.002 278.965 101.937C279.693 101.482 280.445 101.014 281.26 100.754C281.636 100.637 282.013 100.533 282.414 100.546C282.878 100.559 283.329 100.468 283.793 100.468C285.449 100.468 287.167 101.326 288.371 102.457C289.713 103.704 291.004 105.095 291.544 106.928C292.008 108.487 291.983 110.086 291.393 111.632C290.754 113.361 289.5 114.752 288.095 115.882C286.753 116.948 285.273 117.507 283.605 117.52C281.95 117.533 280.232 117.039 278.94 115.986C278.225 115.401 277.561 114.661 276.984 113.933C276.444 113.257 275.943 112.516 275.529 111.749C274.689 110.164 274.588 108.305 275.165 106.577Z" fill="white"/>
<path d="M376.907 212.066C376.248 211.889 375.378 211.556 374.906 211.007C374.906 211.007 374.894 210.997 374.869 210.979C374.881 210.988 374.894 210.997 374.906 211.007C374.878 210.967 374.841 210.939 374.812 210.899C374.687 210.73 374.702 210.539 374.578 210.38C374.426 210.182 374.234 210.011 374.073 209.825C373.725 209.435 373.376 209.033 373.008 208.657C372.268 207.871 371.492 207.136 370.731 206.365C369.982 205.592 369.222 204.821 368.533 204.005C367.819 203.172 367.128 202.346 366.375 201.551C365.676 200.815 364.968 200.091 364.259 199.367C364.114 199.212 363.966 199.046 363.861 198.863C363.817 198.792 363.799 198.673 363.746 198.614C363.677 198.525 363.533 198.458 363.444 198.383C363.044 198.011 362.672 197.602 362.299 197.193C360.862 195.616 359.321 194.077 357.699 192.672C357.329 192.351 356.957 192.02 356.586 191.688C356.458 191.575 356.222 191.267 356.094 191.297C356.007 191.31 355.874 191.453 355.804 191.508C355.695 191.591 355.573 191.665 355.464 191.748C354.598 192.323 353.674 192.807 352.717 193.218C350.71 194.088 348.589 194.577 346.414 194.775C344.359 194.965 342.215 195.08 340.212 194.52C336.424 193.444 332.824 190.909 330.71 187.573C329.572 185.773 328.874 183.662 328.589 181.566C328.439 180.502 328.4 179.444 328.381 178.372C328.355 177.323 328.237 176.255 328.354 175.206C328.459 174.215 328.8 173.254 329.229 172.357C329.441 171.926 329.676 171.502 329.962 171.126C330.102 170.95 330.282 170.823 330.411 170.648C330.548 170.461 330.66 170.244 330.796 170.046C331.334 169.211 331.85 168.379 332.549 167.652C333.266 166.9 334.06 166.214 334.883 165.579C335.705 164.933 336.527 164.287 337.46 163.791C338.373 163.308 339.347 162.928 340.331 162.623C342.418 161.984 344.614 161.629 346.793 161.53C347.818 161.485 348.868 161.47 349.879 161.704C349.845 161.698 349.811 161.692 349.775 161.676C349.809 161.682 349.843 161.687 349.879 161.704C349.924 161.708 349.949 161.727 349.983 161.733C349.949 161.727 349.915 161.721 349.879 161.704C351.188 162.004 352.432 162.746 353.533 163.499C354.658 164.27 355.651 165.183 356.56 166.209C358.53 168.448 359.679 171.122 360.467 173.973C360.857 175.377 361.087 176.816 361.23 178.269C361.368 179.755 361.386 181.26 361.132 182.728C361.072 183.059 361 183.391 360.918 183.725C360.834 184.048 360.637 184.433 360.611 184.769C360.597 184.971 360.587 184.829 360.675 184.97C360.717 185.03 360.805 185.095 360.856 185.142C360.972 185.247 361.078 185.364 361.194 185.468C361.442 185.718 361.68 185.97 361.929 186.221C362.984 187.258 364.193 188.138 365.335 189.084C366.602 190.133 367.87 191.182 369.1 192.27C369.368 192.506 369.68 192.736 369.84 193.055C369.922 193.231 369.92 193.364 370.064 193.509C370.208 193.653 370.351 193.797 370.495 193.942C371.094 194.527 371.702 195.1 372.31 195.672C372.271 195.634 372.221 195.597 372.18 195.548C373.742 196.996 375.29 198.434 376.936 199.78C377.771 200.462 378.615 201.132 379.467 201.779C380.22 202.351 381.152 202.797 381.77 203.512C381.891 203.649 381.991 203.8 382.041 203.981C382.063 204.055 382.034 204.226 382.066 204.288C382.095 204.339 382.239 204.406 382.279 204.455C382.53 204.716 382.652 205.085 382.781 205.421C383.132 206.343 383.295 207.349 383.214 208.347C383.067 210.221 381.659 211.898 379.793 212.237C378.88 212.354 377.832 212.313 376.907 212.066ZM358.052 171.137C356.854 168.359 354.86 165.891 352.278 164.288C350.919 163.442 349.531 162.843 347.904 162.858C346.232 162.868 344.55 163.035 342.915 163.361C342.098 163.529 341.297 163.729 340.506 163.993C340.528 163.99 340.548 163.976 340.569 163.972C340.548 163.976 340.528 163.99 340.506 163.993C340.464 164.01 340.421 164.017 340.39 164.033C340.432 164.015 340.464 164.01 340.506 163.993C338.975 164.492 337.611 165.22 336.339 166.189C335.099 167.142 333.769 168.165 332.842 169.436C332.403 170.046 331.981 170.698 331.602 171.343C331.418 171.659 331.301 171.987 331.152 172.32C331.085 172.463 331.011 172.63 330.896 172.747C330.771 172.877 330.609 172.901 330.485 173.031C330.273 173.241 330.154 173.624 330.063 173.904C329.941 174.266 329.863 174.633 329.799 175.008C329.665 175.805 329.745 176.624 329.767 177.43C329.806 179.142 329.824 180.868 330.191 182.553C330.532 184.141 331.173 185.729 332.087 187.075C333.842 189.657 336.397 191.586 339.295 192.719C340.062 193.024 340.864 193.268 341.684 193.409C342.482 193.554 343.295 193.508 344.101 193.485C345.755 193.434 347.439 193.355 349.056 192.976C352.019 192.271 355.103 190.905 357.066 188.5C361.038 183.64 360.394 176.556 358.052 171.137ZM340.895 163.856C340.884 163.858 340.874 163.86 340.854 163.874C340.875 163.87 340.886 163.869 340.895 163.856ZM340.769 163.898C340.727 163.915 340.684 163.922 340.631 163.941C340.685 163.933 340.727 163.915 340.769 163.898ZM340.178 164.098L340.189 164.097C340.178 164.098 340.178 164.098 340.178 164.098ZM357.948 191.027C357.923 191.008 357.923 191.008 357.948 191.027V191.027ZM368.3 193.355C366.954 192.086 365.484 190.946 364.045 189.79C363.338 189.221 362.622 188.665 361.933 188.071C361.269 187.496 360.682 186.842 360.037 186.242C359.645 187.166 359.136 188.119 358.515 188.923C358.22 189.312 357.876 189.674 357.53 190.026C357.463 190.092 357.322 190.191 357.291 190.273C357.218 190.306 357.212 190.34 357.271 190.365C357.31 190.403 357.351 190.452 357.39 190.491C357.575 190.684 357.761 190.889 357.955 191.07C358.12 191.211 358.197 191.277 358.224 191.306C358.184 191.268 358.033 191.147 357.967 191.079C359.055 192.033 360.091 193.018 361.132 194.034C362.161 195.042 363.14 196.09 364.14 197.124C365.396 195.692 366.807 194.469 368.3 193.355ZM380.42 204.106C379.35 203.27 378.208 202.535 377.14 201.711C376.084 200.885 375.046 200.034 374.055 199.132C373.066 198.24 372.117 197.32 371.146 196.403C370.668 195.955 370.15 195.535 369.69 195.062C369.573 194.947 369.465 194.819 369.348 194.704C369.296 194.656 369.245 194.542 369.175 194.519C369.08 194.478 369.129 194.504 369.025 194.553C368.737 194.697 368.477 194.958 368.229 195.151C367.101 196.043 366.035 197.047 365.116 198.151C365.471 198.662 365.964 199.064 366.398 199.508C366.831 199.952 367.256 200.419 367.681 200.876C368.559 201.84 369.398 202.843 370.267 203.819C371.111 204.777 372.024 205.681 372.926 206.585C373.841 207.499 374.696 208.456 375.582 209.396C377.185 207.623 378.738 205.802 380.42 204.106ZM381.144 209.893C381.659 209.271 381.913 208.534 381.89 207.728C381.883 207.319 381.812 206.92 381.718 206.524C381.606 206.076 381.384 205.71 381.199 205.295C379.589 206.959 378.047 208.7 376.504 210.431C377.968 211.096 380.016 211.228 381.144 209.893Z" fill="white"/>
<path d="M344.762 190.326C344.099 190.338 343.446 190.349 342.785 190.227C342.113 190.108 341.458 189.886 340.826 189.661C338.492 188.818 336.261 187.417 334.967 185.241C334.296 184.113 333.66 182.846 333.407 181.543C333.152 180.23 333.025 178.886 332.978 177.552C332.923 176.241 333.028 174.962 333.46 173.721C333.652 173.16 333.903 172.623 334.163 172.073C334.44 171.488 334.662 170.911 335.073 170.405C336.664 168.401 338.857 167.004 341.255 166.152C342.506 165.707 343.813 165.408 345.143 165.262C346.387 165.128 347.645 165.092 348.861 165.439C349.441 165.606 349.996 165.832 350.536 166.105C351.111 166.383 351.696 166.66 352.228 167.023C352.749 167.387 353.184 167.842 353.609 168.309C354.491 169.295 355.16 170.346 355.792 171.514C356.427 172.703 356.931 173.979 357.284 175.277C357.643 176.619 357.776 178.007 357.843 179.393C357.913 180.657 357.893 181.913 357.361 183.08C356.857 184.21 356.103 185.233 355.329 186.193C353.738 188.197 351.227 189.322 348.795 189.879C347.454 190.172 346.11 190.299 344.762 190.326ZM348.297 188.57C350.56 188.071 352.669 187.141 354.192 185.346C354.916 184.494 355.628 183.565 356.081 182.532C356.567 181.427 356.467 180.256 356.41 179.079C356.28 176.549 355.634 174.12 354.401 171.913C353.823 170.882 353.216 169.877 352.388 169.027C351.598 168.205 350.709 167.675 349.666 167.235C349.181 167.031 348.694 166.817 348.175 166.685C347.6 166.551 347.024 166.55 346.438 166.561C345.203 166.605 343.977 166.78 342.787 167.116C342.203 167.283 341.623 167.481 341.058 167.7C341.08 167.697 341.1 167.683 341.11 167.681C341.089 167.685 341.08 167.697 341.058 167.7C340.985 167.734 340.933 167.753 340.88 167.772C340.933 167.753 340.994 167.721 341.058 167.7C339.951 168.146 338.902 168.76 337.948 169.481C337.469 169.831 337.065 170.236 336.667 170.684C336.488 170.889 336.298 171.095 336.129 171.298C335.96 171.501 335.95 171.58 335.898 171.821C335.843 172.04 335.692 172.218 335.578 172.413C335.426 172.657 335.289 172.922 335.161 173.174C334.918 173.688 334.723 174.227 334.594 174.768C334.315 175.919 334.384 177.105 334.441 178.283C334.502 179.482 334.59 180.721 334.954 181.874C335.3 182.985 335.846 184.099 336.533 185.048C337.712 186.675 339.529 187.763 341.409 188.397C342.485 188.766 343.533 188.95 344.67 188.921C345.876 188.904 347.095 188.83 348.297 188.57ZM341.35 167.578C341.433 167.544 341.466 167.539 341.35 167.578V167.578ZM340.859 167.775C340.639 167.864 340.712 167.831 340.859 167.775V167.775Z" fill="white"/>
<path d="M339.389 169.627C339.338 169.657 339.287 169.687 339.238 169.728C340.238 169.088 341.388 168.559 342.543 168.283C343.089 168.156 343.647 168.105 344.208 168.075C344.592 168.05 345.106 168.005 345.397 168.315C345.675 168.617 345.639 169.11 345.299 169.35C344.93 169.617 344.42 169.472 344 169.481C342.884 169.506 341.766 169.953 340.788 170.446C340.303 170.685 339.86 170.975 339.403 171.254C339.049 171.475 338.641 171.636 338.291 171.302C337.495 170.514 338.883 169.948 339.389 169.627Z" fill="white"/>
<path fill-rule="evenodd" clip-rule="evenodd" d="M110.716 38.5001C110.933 37.2838 109.955 36.6081 109.711 35.1487L108.121 27.9324C107.863 27.054 108.094 25.2567 107.524 24.6486C106.709 24.5 107.048 24.9864 106.084 25.6486C105.35 26.4459 105.35 26.4459 104.807 27.1756L98.9928 32.9324C97.9604 34 96.7786 34.5541 95.7461 35.6216C96.4933 38.0946 97.6344 40.6352 98.4223 43.2838C99.1151 45.5812 100.541 48.419 99.2373 50.5407C98.2457 52.3785 95.2707 53.4461 93.3961 51.6893C92.7712 50.9055 92.7576 49.5677 93.2602 48.6487C93.8987 46.919 95.0398 48.1217 95.8141 47.5001C96.1944 46.8109 95.7326 46.5677 95.4609 45.6758C95.2435 44.9731 95.2164 44.2163 94.8224 43.5541C94.347 41.9595 93.9259 40.5541 93.2738 39.0136C92.9614 37.9595 93.0836 37.7298 92.812 36.8379C92.5539 35.9595 92.2142 35.473 91.9426 34.5946C91.4671 33 91.3992 31.4865 90.9237 29.8919C92.0648 29.1757 98.0962 23.5405 99.1286 22.4594C100.392 21.5134 106.627 15.2431 107.388 15.2026C107.904 15.6215 109.806 23.9053 110.295 24.9188L113.243 35.3919C113.609 36.6216 114.357 39.0946 113.732 40.2433C113.216 41.7433 111.776 42.7433 110.078 42.8649C106.967 42.8244 107.266 39.2703 108.706 38.2703C110.105 37.1352 109.235 38.7433 110.716 38.5001ZM109.235 36.8243C107.374 38.3379 107.388 37.7568 106.953 40.1893C106.546 42.0406 107.157 42.8244 108.896 43.4595C111.789 44.7163 114.655 44.6352 116.177 41.2974C118.364 37 115.634 29.1486 114.438 24.5135C114.221 23.8107 114.316 22.8243 114.112 22.108C111.409 13.108 112.034 15.7972 109.086 14.3647C107.062 13.4188 106.804 14.4729 105.228 15.7026L96.2216 24.3378C94.1025 26.3108 91.8882 27.9324 90 30.027C90.7879 32.6757 91.5079 35.7297 92.3637 38.5541L94.3877 44.6758C94.6051 45.3785 94.5779 45.9595 94.7953 46.6758C92.7304 46.9055 92.6625 47.3109 92.3093 49.338C91.7252 51.2434 92.4588 51.7974 93.4776 53.2164C95.2299 55.2029 94.7409 54.1893 96.8329 54.7299C97.9876 55.3515 99.7535 54.8245 100.84 53.9191C104.712 50.0812 102.375 46.1622 101.696 41.9325C101.438 41.0541 100.392 38.8514 100.025 37.6217C101.737 35.5811 104.073 33.7297 104.753 32.7568C105.35 32.1892 106.885 30.2027 107.646 30.1621C108.203 30.7838 108.869 35.5811 109.235 36.8243Z" fill="white"/>
<path d="M40.6317 75.9292C40.9737 75.0371 43.7096 69.9964 44.1854 67.6769C44.5423 65.9223 40.9588 64.9261 40.7061 64.8815C37.8066 64.4057 40.1262 76.6281 36.052 62.2348C35.5911 60.6141 33.2864 55.4992 32.2456 55.068C31.74 54.8598 31.5022 55.1572 30.3721 55.5884C23.3837 58.2351 29.8665 55.068 14.4028 64.2273C3.20638 70.5169 4.12826 69.8032 5.76385 73.6096C7.65222 77.9811 12.6185 65.1789 5.13938 82.5905C4.29184 84.5829 3.62274 86.6498 2.81981 88.6571C2.18045 90.2481 1.24366 91.7945 0.500205 93.3557C0.158217 94.0843 -0.183739 94.9021 0.113641 95.6455C0.12851 95.6901 0.187983 95.7199 0.202852 95.7645C0.173114 95.7793 0.143348 95.7942 0.128479 95.8091C0.173086 95.8388 0.262339 95.8686 0.306946 95.8983C0.8571 96.7012 2.07636 96.954 2.90903 97.2811C4.24724 97.8164 5.5408 98.426 6.86415 98.991C12.7523 101.489 18.6404 104.002 24.5286 106.5C25.956 107.11 26.7292 107.303 27.9633 106.262C28.8554 105.504 29.361 104.403 29.8963 103.377C30.8628 101.549 31.7103 99.6602 32.6322 97.8015C37.197 88.553 36.8699 89.2964 38.8474 84.8209C39.8288 88.553 40.0072 87.9285 42.8175 86.2929C44.8099 85.2075 44.1557 85.4156 41.8807 79.5721C41.6577 78.9625 41.4198 77.9365 40.6317 75.9292ZM34.4759 89.7277C30.9222 97.6231 33.3608 93.6382 27.1009 104.701C26.5656 105.533 14.2541 99.0654 3.65248 95.3184C2.92389 95.0657 2.67109 94.8723 2.22502 94.5006C2.93873 92.7907 3.44427 91.2294 3.51862 91.0064C6.71546 82.085 11.3695 73.3569 12.5441 69.937C13.4214 67.4687 12.0535 70.0559 24.0379 61.8928C26.2682 60.3762 31.175 57.6849 31.2048 57.6552C34.9518 66.6063 34.476 68.2419 37.6133 77.2525C39.5909 82.8879 39.5314 78.4569 34.4759 89.7277Z" fill="white"/>
<path d="M23.9632 72.8512C21.2868 71.1115 20.2311 71.4386 20.3947 71.4386C19.2349 71.4237 19.4728 72.0185 19.3836 72.2862C18.5955 74.6057 17.2424 77.0294 16.9748 77.6093C13.882 84.0773 14.8634 82.754 18.9375 84.4639C21.1976 85.4155 20.6772 85.2519 22.0005 85.6088C27.3534 87.0362 25.4353 89.9506 29.1079 81.8767C29.3904 81.2671 31.2788 76.8807 31.0409 76.2413C30.684 75.3046 25.8813 74.0853 23.9632 72.8512ZM20.588 73.9218C20.6028 73.9218 20.6028 73.9366 20.6177 73.9366C20.469 74.1745 20.469 74.1894 20.588 73.9218ZM17.8372 78.2338C18.4914 76.732 19.443 75.2748 19.1308 75.9142C18.3427 77.5052 17.1086 79.914 17.8372 78.2338ZM16.7666 82.2335C17.4952 82.5458 17.2871 82.4715 18.0008 82.7986C16.4395 82.3079 16.6031 82.412 16.7666 82.2335ZM26.3423 84.9694C26.0598 85.5196 25.9408 85.5493 26.2382 85.0289C26.8776 83.9137 27.1749 83.3041 26.3423 84.9694ZM26.8032 83.7204C25.5542 86.4563 26.7883 86.0251 22.7588 84.0922C15.131 80.4344 15.592 84.0327 18.6104 77.9513C21.8965 71.3197 20.2609 73.4459 26.8181 75.4533C28.0076 75.825 28.1414 76.0778 29.6581 76.7023C29.9109 76.8212 26.9073 83.4825 26.8032 83.7204ZM28.7808 76.1818C28.6916 76.1372 27.5616 75.6317 27.8143 75.6912C29.3756 76.167 28.8403 76.2116 28.7808 76.1818ZM29.4797 76.4941C29.4797 76.4644 29.4648 76.4643 29.5243 76.509C29.5243 76.509 29.5094 76.4941 29.4797 76.4941Z" fill="white"/>
<path d="M86.0824 127.689C86.5236 128.13 87.2477 128.13 87.6889 127.689C88.1302 127.248 88.1302 126.524 87.6889 126.082L86.3879 124.781L87.7229 123.446C88.1528 123.016 88.1528 122.315 87.7229 121.885C87.2929 121.455 86.5915 121.455 86.1616 121.885L84.8266 123.22L83.5255 121.919C83.0842 121.478 82.3602 121.478 81.9189 121.919C81.4777 122.36 81.4777 123.084 81.9189 123.526L83.22 124.827L81.885 126.162C81.4551 126.592 81.4551 127.293 81.885 127.723C82.3149 128.153 83.0164 128.153 83.4463 127.723L84.7813 126.388L86.0824 127.689Z" fill="white"/>
<path d="M404.983 127.585C404.794 127.56 404.589 127.538 404.372 127.519M404.372 127.519C401.709 127.288 397.187 127.627 396.444 130.599C395.64 133.814 396.109 145.668 396.444 151.193C396.109 153.705 395.841 159.029 397.449 160.235C399.458 161.742 406.49 160.235 414.024 160.737C420.052 161.139 433.949 160.904 440.144 160.737C442.153 161.239 446.272 161.239 446.674 157.221C447.076 153.202 446.841 147.175 446.674 144.663C447.511 144.496 449.185 143.357 449.185 140.143C449.185 136.124 448.683 133.111 446.674 132.608C446.674 129.594 447.176 127.585 442.655 127.585C439.039 127.585 418.043 127.585 407.997 127.585L404.372 127.519Z" stroke="white" stroke-width="1.5"/>
<path d="M402.471 143.658C402.471 136.023 409.838 133.78 413.521 133.612C417.037 133.612 424.07 136.124 423.567 144.663C423.065 153.202 415.028 154.709 412.517 154.709C410.005 154.709 402.471 153.202 402.471 143.658Z" stroke="white" stroke-width="1.5"/>
<path d="M405.133 143.646C405.133 138.137 410.442 136.519 413.096 136.398C415.63 136.398 420.697 138.21 420.335 144.371C419.973 150.532 414.182 151.619 412.372 151.619C410.562 151.619 405.133 150.532 405.133 143.646Z" fill="white" stroke="white" stroke-width="1.5"/>
<path d="M428.59 146.673C430.097 146.84 433.814 147.075 436.627 146.673C439.439 146.271 440.812 146.505 441.147 146.673" stroke="white" stroke-width="1.5" stroke-linecap="round"/>
<path d="M405.988 127.585C406.825 126.246 410.509 122.964 414.527 118.544C419.55 113.018 423.569 110.507 424.071 109" stroke="white" stroke-width="1.5"/>
<path d="M428.591 136.123C431.772 135.956 438.837 135.722 441.65 136.123M427.586 141.146C431.102 141.146 438.837 141.146 441.65 141.146" stroke="white" stroke-width="1.5" stroke-linecap="round"/>
<path d="M427.084 152.198C429.93 152.198 436.326 152.198 439.139 152.198" stroke="white" stroke-width="1.5" stroke-linecap="round"/>
<path fill-rule="evenodd" clip-rule="evenodd" d="M232 47.4242C230.231 46.2736 228.548 45.123 226.814 44.0859C223.934 42.3681 220.985 40.7475 218.123 39.0297C213.735 36.4044 209.398 33.7143 205.027 31.089C203.189 29.987 201.298 28.9498 199.407 27.9127C198.817 27.5886 198.731 27.2645 199.078 26.7135C199.685 25.7249 200.222 24.6878 200.795 23.6668C201.02 23.2617 201.142 22.9052 200.621 22.5486C198.939 21.398 197.291 20.1988 195.608 19.0644C193.596 17.7032 191.584 16.3581 189.537 15.0454C188.965 14.6727 188.358 14.3486 187.716 14.1218C186.363 13.6518 185.704 14.6403 185.097 15.4182C183.64 17.298 182.304 19.2589 180.951 21.2036C180.5 21.8518 180.309 21.8842 179.581 21.317C177.881 19.9881 176.008 18.8699 174.152 17.7193C174.013 17.6383 173.44 17.849 173.371 18.0273C172.469 20.053 171.619 22.0787 170.787 24.1368C169.971 26.1625 169.243 28.2044 168.445 30.2301C167.213 33.3253 165.947 36.4044 164.733 39.5159C163.484 42.7084 162.287 45.9171 161.073 49.1096C160.743 49.9685 161.611 50.3899 162.079 50.6816C164.161 52.0104 166.346 53.1934 168.497 54.4251C168.636 54.5061 168.827 54.5871 168.965 54.5547C170.006 54.3602 170.596 54.733 170.908 55.6729C170.96 55.8673 171.272 55.997 171.498 56.1104C173.146 57.0179 174.828 57.8931 176.459 58.8168C178.419 59.9188 180.362 61.0532 182.304 62.1713C187.89 65.3963 193.44 68.6698 199.078 71.8136C202.859 73.9204 206.797 75.8002 210.647 77.7935C211.48 78.2149 212.087 77.9556 212.521 77.3398C213.926 75.3627 215.279 73.337 216.666 71.3275C217.256 70.4686 217.881 69.6259 218.453 68.7508C222.148 63.1275 225.842 57.5041 229.485 51.8646C230.352 50.4871 231.098 48.9962 232 47.4242ZM200.673 22.8565C199.511 24.1368 198.488 25.2712 197.447 26.3894C196.875 27.0214 196.857 27.5886 197.569 28.1396C198.037 28.5123 198.575 28.8526 199.095 29.1605C202.512 31.17 205.981 33.1309 209.381 35.1728C212.694 37.1661 215.903 39.3215 219.251 41.2661C222.321 43.0487 225.513 44.6207 228.635 46.306C229.52 46.776 230.352 47.3108 231.219 47.8132C224.212 57.5689 217.395 67.4058 211.029 77.4208C195.157 68.2484 179.217 59.0436 163.276 49.8389C164.126 48.7369 164.924 47.797 165.618 46.776C169.815 40.5693 174.013 34.3625 178.141 28.1071C180.865 24.0071 183.484 19.8423 186.138 15.6936C186.363 15.3533 186.519 15.0454 187.04 15.3047C188.115 15.8557 189.243 16.3095 190.283 16.9253C192.902 18.4486 195.452 20.053 198.054 21.5925C198.817 22.0463 199.667 22.3704 200.673 22.8565ZM173.978 18.9024C174.221 19.0482 174.516 19.2265 174.811 19.3886C176.164 20.1178 177.499 20.8633 178.87 21.5439C180.24 22.2245 180.257 22.1921 179.442 23.4075C174.585 30.6514 169.746 37.8953 164.889 45.1392C164.542 45.674 164.178 46.1926 163.831 46.7274C163.779 46.7112 163.744 46.695 163.71 46.6788C167.109 37.4578 170.526 28.2368 173.978 18.9024Z" fill="white" stroke="white" stroke-width="0.6916" stroke-miterlimit="10"/>
<path d="M325.081 27.3416C322.891 23.0449 318.52 22.4046 316.85 22.0798C315.616 21.8385 316.729 21.7271 317.203 21.4951C318.01 21.1147 317.054 19.4721 316.377 19.4536C315.244 19.435 315.486 20.4001 313.815 18.3956C312.145 16.3911 311.078 16.5767 309.333 17.3284C306.957 18.3492 309.027 21.4487 308.117 22.3953C307.932 22.5809 307.7 22.7108 307.477 22.8129C305.63 20.8177 302.29 18.1079 298.698 19.6484C296.183 20.7249 294.522 23.1841 292.935 25.2907C291.2 27.5921 289.019 29.773 286.152 30.5896C284.472 31.0722 282.421 31.035 280.713 30.8123C278.932 30.5803 277.113 30.172 275.377 29.7173C267.554 27.6571 261.578 13.7649 273.484 8.45671C285.4 3.14853 289.743 20.2702 281.261 24.836C272.946 29.3089 263.397 15.9735 274.774 10.9066C281.307 7.99269 286.681 18.4513 279.841 22.2932C273.921 25.6155 268.798 15.9735 275.628 13.4215C279.823 11.8532 282.245 18.2471 278.644 19.8526C275.647 21.1889 273.373 17.1521 276.185 15.8993C277.252 15.426 278.505 16.7994 277.642 17.6625C277.057 18.2564 276.593 17.5419 276.305 17.8759C275.879 18.3585 277.066 19.1473 278.115 18.3307C279.386 17.347 278.421 13.7742 275.396 15.1291C272.371 16.4839 274.199 23.1006 279.071 20.9291C284.444 18.5348 280.649 10.0065 274.784 12.6234C267.953 15.6673 272.872 26.627 280.379 23.2769C287.887 19.9268 283.349 5.56134 273.392 9.9972C262.655 14.7857 270.756 32.2786 281.948 26.3486C292.267 20.8734 286.653 0.902745 272.473 7.22245C258.673 13.3751 264.306 37.8002 286.718 34.0046C286.718 34.0046 292.146 34.1067 291.766 40.3151C291.636 42.4866 290.866 46.2729 290.754 46.8018C289.919 46.8297 289.279 47.0431 289.307 48.0175C289.325 48.9826 290.625 48.5001 292.119 48.9362C293.381 49.3074 294.652 50.6623 295.107 49.9756C295.441 49.4559 294.931 48.9826 294.513 48.7135C294.968 48.9177 295.645 49.0661 295.84 48.2588C295.998 47.5999 294.689 47.4885 294.689 47.4885C294.689 47.4885 296.332 47.5257 296.053 46.6255C295.775 45.7253 294.485 46.644 292.954 46.8204C292.907 46.8296 292.852 46.8296 292.805 46.8389C293.028 46.2821 293.483 44.9829 294.197 42.0968C295.459 37.0485 293.121 34.0232 290.996 32.3806C291.877 31.9909 296.61 30.3297 298.513 38.5519C299.171 41.4194 298.513 44.8901 298.318 45.7996C297.483 45.8274 296.833 46.0316 296.861 47.0152C296.879 47.9804 298.179 47.4978 299.673 47.934C300.935 48.3052 302.206 49.6601 302.661 48.9733C302.995 48.4537 302.484 47.9804 302.067 47.702C302.522 47.9061 303.199 48.0546 303.394 47.2472C303.552 46.5884 302.243 46.477 302.243 46.477C302.243 46.477 303.886 46.5141 303.607 45.6139C303.329 44.7138 302.039 45.6325 300.508 45.8088C300.406 45.8181 300.304 45.8274 300.202 45.8367C300.526 44.8437 301.362 41.9762 301.046 39.6191C300.007 31.7496 296.703 29.4853 293.845 29.0862C295.84 26.3579 297.724 23.2676 299.96 22.2747C302.893 20.9662 305.909 25.17 306.79 26.5342C305.352 28.0654 303.431 30.2184 303.496 32.7333C303.57 35.6101 303.097 36.733 310.595 42.1618C311.56 42.8578 310.261 43.2197 311.43 44.1756C312.6 45.1314 314.818 45.4748 314.948 44.6674C315.068 43.9343 313.082 44.3983 313.166 43.8879C313.24 43.3775 317.908 43.0341 317.184 41.7442C316.534 40.6027 314.159 43.3311 313.732 42.7C313.277 42.0226 317.769 41.0667 316.646 39.7119C315.876 38.7839 314.465 42.2639 313.203 41.6514C312.841 41.4751 315.467 40.1666 314.539 39.3963C313.713 38.7189 312.581 42.1432 311.319 40.7698C308.804 38.0229 305.009 35.3595 305.807 32.2785C307.106 27.2859 309.509 26.0702 310.261 25.7918C311.727 25.2443 311.811 27.1003 313.955 26.1073C316.015 25.1515 314.781 24.2142 316.015 23.8059C317.249 23.3883 322.084 25.4206 323.587 29.012C324.061 30.1256 324.302 33.0024 322.696 34.6914C320.766 36.7144 320.942 33.1787 318.056 34.5429C316.599 35.2296 316.358 35.5637 316.497 35.805C316.785 36.3061 317.518 35.7214 318.53 35.2482C319.894 34.6078 320.618 36.2411 320.618 36.2411C320.618 36.2411 319.096 35.109 317.527 36.4267C317.184 36.7144 317.045 36.9928 317.128 37.1691C317.258 37.4568 317.694 37.3269 318.66 36.7422C319.606 36.1762 320.154 36.9371 320.154 36.9371C320.154 36.9371 317.435 37.7723 318.029 38.6261C318.548 39.3778 320.358 37.067 320.998 37.828C321.518 38.4498 317.797 39.4613 319.523 39.8511C320.905 40.1666 321.88 37.6888 322.353 37.596C322.863 37.4939 322.093 39.8603 323.068 39.3963C323.996 38.9509 323.095 37.0578 324.042 35.675C324.979 34.2645 327.271 31.6382 325.081 27.3416Z" fill="white"/>
</svg>
